<svg xmlns="http://www.w3.org/2000/svg" width="700" height="300" viewBox="0 0 700 300"><rect width="100%" height="100%" fill="#DDDDDD"/><path fill="#999999" d="M175.885 82.24v108.45h-20.25V82.24zm39.83 108.45h-18.53v-76.95h11.33q3.6 0 4.72 3.37l1.2 5.7q2.03-2.25 4.24-4.12 2.21-1.88 4.73-3.22 2.51-1.36 5.39-2.14 2.89-.79 6.34-.79 7.28 0 11.97 3.94 4.68 3.94 7.01 10.46 1.8-3.83 4.5-6.56 2.7-2.74 5.92-4.46 3.23-1.73 6.87-2.56 3.63-.82 7.31-.82 6.37 0 11.32 1.95t8.33 5.7q3.37 3.75 5.13 9.15 1.77 5.4 1.77 12.37v48.98h-18.53v-48.98q0-7.34-3.22-11.06-3.23-3.71-9.45-3.71-2.85 0-5.29.98-2.44.97-4.28 2.81-1.83 1.83-2.88 4.61t-1.05 6.37v48.98h-18.6v-48.98q0-7.72-3.11-11.24-3.12-3.53-9.12-3.53-4.05 0-7.54 1.99-3.48 1.99-6.48 5.44zm147.75-19.88v-12.97q-8.03.37-13.5 1.39-5.48 1.01-8.78 2.58-3.3 1.58-4.72 3.68-1.43 2.1-1.43 4.57 0 4.88 2.89 6.98t7.54 2.1q5.7 0 9.86-2.06t8.14-6.27m-39.15-40.42-3.3-5.92q13.27-12.16 31.95-12.16 6.75 0 12.07 2.22 5.33 2.21 9 6.15 3.68 3.93 5.59 9.41 1.91 5.47 1.91 12v48.6h-8.4q-2.62 0-4.05-.79-1.42-.78-2.25-3.18l-1.65-5.56q-2.92 2.63-5.7 4.62-2.77 1.99-5.77 3.34t-6.41 2.06q-3.42.71-7.54.71-4.88 0-9-1.31-4.13-1.32-7.13-3.94t-4.65-6.52-1.65-9.08q0-2.92.98-5.81.97-2.89 3.19-5.51 2.21-2.63 5.73-4.95 3.53-2.33 8.67-4.06 5.13-1.72 11.96-2.81 6.82-1.09 15.6-1.31v-4.5q0-7.72-3.3-11.44-3.3-3.71-9.53-3.71-4.5 0-7.46 1.05t-5.21 2.36q-2.25 1.32-4.09 2.37t-4.09 1.05q-1.95 0-3.3-1.02-1.35-1.01-2.17-2.36m102.75 19.95q3.45 0 6-.94t4.23-2.59q1.69-1.64 2.56-3.97.86-2.32.86-5.1 0-5.7-3.42-9.04-3.41-3.34-10.23-3.34-6.83 0-10.24 3.34t-3.41 9.04q0 2.7.86 5.03.86 2.32 2.55 4.01 1.69 1.68 4.28 2.62 2.58.94 5.96.94m20.92 43.8q0-2.25-1.35-3.67-1.35-1.43-3.67-2.22-2.33-.79-5.44-1.16t-6.6-.56-7.2-.34-7.24-.6q-3.07 1.72-4.98 4.05-1.92 2.32-1.92 5.4 0 2.03 1.02 3.79 1.01 1.76 3.22 3.03 2.21 1.28 5.74 1.99 3.52.72 8.62.72 5.18 0 8.93-.79t6.18-2.18q2.44-1.38 3.57-3.3 1.12-1.91 1.12-4.16m-3.67-77.78h22.12v6.91q0 3.29-3.97 4.04l-6.9 1.28q1.57 3.97 1.57 8.7 0 5.7-2.28 10.31-2.29 4.61-6.34 7.84t-9.56 4.99q-5.52 1.76-11.89 1.76-2.25 0-4.35-.22-2.1-.23-4.13-.6-3.6 2.17-3.6 4.87 0 2.32 2.14 3.41t5.66 1.54q3.53.45 8.03.56 4.5.12 9.22.49 4.73.38 9.23 1.31 4.5.94 8.02 2.97 3.53 2.02 5.67 5.51 2.13 3.49 2.13 8.96 0 5.1-2.51 9.9t-7.27 8.55q-4.77 3.75-11.7 6.04-6.94 2.28-15.79 2.28-8.7 0-15.15-1.68-6.45-1.69-10.73-4.5-4.27-2.82-6.37-6.49-2.1-3.68-2.1-7.65 0-5.4 3.26-9.04 3.26-3.63 8.96-5.81-3.07-1.57-4.87-4.2-1.8-2.62-1.8-6.9 0-1.73.64-3.56.63-1.84 1.87-3.64t3.11-3.41q1.88-1.61 4.43-2.89-5.85-3.15-9.19-8.4t-3.34-12.3q0-5.7 2.29-10.31 2.29-4.62 6.38-7.88 4.08-3.26 9.67-4.99 5.59-1.72 12.19-1.72 4.95 0 9.3 1.01 4.35 1.02 7.95 2.96m48.45 27.01h34.95q0-3.6-1.01-6.79-1.02-3.19-3.04-5.59-2.03-2.4-5.14-3.79t-7.24-1.39q-8.02 0-12.63 4.58-4.62 4.57-5.89 12.98m47.25 11.17h-47.63q.45 5.93 2.1 10.24t4.35 7.12q2.7 2.82 6.42 4.2 3.71 1.39 8.21 1.39t7.76-1.05 5.7-2.32q2.44-1.28 4.28-2.33 1.83-1.05 3.56-1.05 2.32 0 3.45 1.73l5.32 6.75q-3.07 3.59-6.9 6.03-3.82 2.44-7.99 3.9-4.16 1.47-8.47 2.07t-8.36.6q-8.03 0-14.93-2.67-6.9-2.66-12-7.87-5.1-5.22-8.02-12.9-2.93-7.69-2.93-17.82 0-7.87 2.55-14.81t7.32-12.07q4.76-5.14 11.62-8.14t15.49-3q7.27 0 13.42 2.32 6.15 2.33 10.58 6.79 4.42 4.46 6.94 10.95 2.51 6.49 2.51 14.82 0 4.2-.9 5.66t-3.45 1.46"/></svg>