<svg xmlns="http://www.w3.org/2000/svg" xmlns:v="https://svgstorm.com"
viewBox = "0 0 180 180"
width="180"
height="180">
<g fill="None" fill-opacity="0.0" stroke="#000000" stroke-opacity="0.00" stroke-width="0.3"><path d="
M 0.00 75.00 
C 0.34 74.84 0.93 74.35 1.00 74.00
C 8.42 36.48 36.46 8.42 74.00 1.00
C 74.35 0.93 74.84 0.34 75.00 0.00
L 0.00 0.00
L 0.00 75.00 Z"/>
</g>
<g fill="None" fill-opacity="0.0" stroke="#1A1A1A" stroke-opacity="0.39" stroke-width="0.3"><path d="
M 74.00 1.00 
C 75.77 0.81 81.05 2.15 83.00 0.00
L 75.00 0.00
C 74.84 0.34 74.35 0.93 74.00 1.00 Z"/>
</g>
<g fill="None" fill-opacity="0.0" stroke="#1A1A1A" stroke-opacity="0.99" stroke-width="0.3"><path d="
M 74.00 1.00 
C 36.46 8.42 8.42 36.48 1.00 74.00
C 0.81 75.77 2.15 81.05 0.00 83.00
L 0.00 95.00
C 1.39 95.74 1.65 99.32 0.00 100.00
L 0.00 101.00
C 1.89 101.56 0.96 104.61 1.00 105.00
C 5.33 141.62 38.37 174.67 75.00 179.00
C 75.86 178.07 81.89 178.83 83.00 180.00
L 95.00 180.00
C 95.74 178.61 99.32 178.35 100.00 180.00
L 101.00 180.00
C 101.79 177.70 105.36 179.09 106.00 179.00
C 142.13 171.85 174.51 142.97 179.00 105.00
C 178.06 104.38 178.79 101.60 180.00 101.00
L 180.00 100.00
C 178.61 99.26 178.35 95.68 180.00 95.00
L 180.00 83.00
C 178.97 81.65 177.98 75.95 179.00 75.00
C 174.66 38.39 141.64 5.33 105.00 1.00
C 104.38 1.94 101.60 1.21 101.00 0.00
L 100.00 0.00
C 99.26 1.39 95.68 1.65 95.00 0.00
L 83.00 0.00
C 81.05 2.15 75.77 0.81 74.00 1.00
M 116.00 106.00 
C 106.52 105.93 95.87 111.51 86.99 112.99 C 78.12 114.48 67.62 118.83 65.08 128.08 C 62.55 137.33 51.52 144.37 45.25 135.75 C 38.97 127.14 48.87 118.12 51.92 109.92 C 54.98 101.73 60.67 93.35 64.31 85.31 C 67.94 77.26 72.20 68.89 76.25 61.25 C 80.31 53.61 86.02 46.30 93.25 41.25 C 100.48 36.20 111.61 30.93 119.75 38.25 C 127.88 45.58 126.95 55.47 129.00 66.00 C 131.05 76.53 129.45 89.57 131.00 101.00 C 132.55 112.43 132.71 119.01 137.00 131.00 C 141.28 142.99 124.47 150.92 121.22 137.78 C 117.97 124.63 121.78 117.67 116.00 106.00 Z"/>
</g>
<g fill="None" fill-opacity="0.0" stroke="#1A1A1A" stroke-opacity="0.64" stroke-width="0.3"><path d="
M 100.00 0.00 
L 95.00 0.00
C 95.68 1.65 99.26 1.39 100.00 0.00 Z"/>
</g>
<g fill="None" fill-opacity="0.0" stroke="#1A1A1A" stroke-opacity="0.26" stroke-width="0.3"><path d="
M 105.00 1.00 
C 104.94 0.99 105.00 0.00 105.00 0.00
L 101.00 0.00
C 101.60 1.21 104.38 1.94 105.00 1.00 Z"/>
</g>
<g fill="None" fill-opacity="0.0" stroke="#000000" stroke-opacity="0.00" stroke-width="0.3"><path d="
M 105.00 1.00 
C 141.64 5.33 174.66 38.39 179.00 75.00
C 179.01 75.06 180.00 75.00 180.00 75.00
L 180.00 0.00
L 105.00 0.00
C 105.00 0.00 104.94 0.99 105.00 1.00 Z"/>
</g>
<g fill="None" fill-opacity="0.0" stroke="#FA4343" stroke-opacity="1.00" stroke-width="0.3"><path d="
M 116.00 106.00 
C 121.78 117.67 117.97 124.63 121.22 137.78 C 124.47 150.92 141.28 142.99 137.00 131.00 C 132.71 119.01 132.55 112.43 131.00 101.00 C 129.45 89.57 131.05 76.53 129.00 66.00 C 126.95 55.47 127.88 45.58 119.75 38.25 C 111.61 30.93 100.48 36.20 93.25 41.25 C 86.02 46.30 80.31 53.61 76.25 61.25 C 72.20 68.89 67.94 77.26 64.31 85.31 C 60.67 93.35 54.98 101.73 51.92 109.92 C 48.87 118.12 38.97 127.14 45.25 135.75 C 51.52 144.37 62.55 137.33 65.08 128.08 C 67.62 118.83 78.12 114.48 86.99 112.99 C 95.87 111.51 106.52 105.93 116.00 106.00
M 114.00 82.00 
C 114.36 85.68 117.02 91.71 113.00 94.00
C 108.50 96.56 101.04 94.07 96.00 96.00 C 90.96 97.93 84.44 98.14 79.00 99.00
C 87.15 82.87 92.48 58.61 112.00 53.00
C 112.16 62.78 114.74 71.98 114.00 82.00 Z"/>
</g>
<g fill="None" fill-opacity="0.0" stroke="#1D1A1A" stroke-opacity="1.00" stroke-width="0.3"><path d="
M 113.00 94.00 
C 115.30 92.11 114.00 84.70 114.00 82.00
C 114.74 71.98 112.16 62.78 112.00 53.00
C 92.48 58.61 87.15 82.87 79.00 99.00
C 84.44 98.14 90.96 97.93 96.00 96.00 C 101.04 94.07 108.50 96.56 113.00 94.00 Z"/>
</g>
<g fill="None" fill-opacity="0.0" stroke="#1A1A1A" stroke-opacity="0.39" stroke-width="0.3"><path d="
M 0.00 75.00 
L 0.00 83.00
C 2.15 81.05 0.81 75.77 1.00 74.00
C 0.93 74.35 0.34 74.84 0.00 75.00 Z"/>
</g>
<g fill="None" fill-opacity="0.0" stroke="#1A1A1A" stroke-opacity="0.36" stroke-width="0.3"><path d="
M 180.00 83.00 
L 180.00 75.00
C 180.00 75.00 179.01 75.06 179.00 75.00
C 177.98 75.95 178.97 81.65 180.00 83.00 Z"/>
</g>
<g fill="None" fill-opacity="0.0" stroke="#943030" stroke-opacity="1.00" stroke-width="0.3"><path d="
M 113.00 94.00 
C 117.02 91.71 114.36 85.68 114.00 82.00
C 114.00 84.70 115.30 92.11 113.00 94.00 Z"/>
</g>
<g fill="None" fill-opacity="0.0" stroke="#1A1A1A" stroke-opacity="0.64" stroke-width="0.3"><path d="
M 0.00 100.00 
C 1.65 99.32 1.39 95.74 0.00 95.00
L 0.00 100.00 Z"/>
</g>
<g fill="None" fill-opacity="0.0" stroke="#1A1A1A" stroke-opacity="0.64" stroke-width="0.3"><path d="
M 180.00 100.00 
L 180.00 95.00
C 178.35 95.68 178.61 99.26 180.00 100.00 Z"/>
</g>
<g fill="None" fill-opacity="0.0" stroke="#1A1A1A" stroke-opacity="0.26" stroke-width="0.3"><path d="
M 0.00 105.00 
C 0.50 105.00 1.00 105.00 1.00 105.00
C 0.96 104.61 1.89 101.56 0.00 101.00
L 0.00 105.00 Z"/>
</g>
<g fill="None" fill-opacity="0.0" stroke="#1A1A1A" stroke-opacity="0.26" stroke-width="0.3"><path d="
M 179.00 105.00 
C 179.01 104.94 180.00 105.00 180.00 105.00
L 180.00 101.00
C 178.79 101.60 178.06 104.38 179.00 105.00 Z"/>
</g>
<g fill="None" fill-opacity="0.0" stroke="#000000" stroke-opacity="0.00" stroke-width="0.3"><path d="
M 0.00 180.00 
L 75.00 180.00
C 75.00 179.50 75.00 179.00 75.00 179.00
C 38.37 174.67 5.33 141.62 1.00 105.00
C 1.00 105.00 0.50 105.00 0.00 105.00
L 0.00 180.00 Z"/>
</g>
<g fill="None" fill-opacity="0.0" stroke="#000000" stroke-opacity="0.00" stroke-width="0.3"><path d="
M 106.00 179.00 
C 105.65 179.07 105.17 179.67 105.00 180.00
L 180.00 180.00
L 180.00 105.00
C 180.00 105.00 179.01 104.94 179.00 105.00
C 174.51 142.97 142.13 171.85 106.00 179.00 Z"/>
</g>
<g fill="None" fill-opacity="0.0" stroke="#1A1A1A" stroke-opacity="0.36" stroke-width="0.3"><path d="
M 75.00 179.00 
C 75.00 179.00 75.00 179.50 75.00 180.00
L 83.00 180.00
C 81.89 178.83 75.86 178.07 75.00 179.00 Z"/>
</g>
<g fill="None" fill-opacity="0.0" stroke="#1A1A1A" stroke-opacity="0.33" stroke-width="0.3"><path d="
M 101.00 180.00 
L 105.00 180.00
C 105.17 179.67 105.65 179.07 106.00 179.00
C 105.36 179.09 101.79 177.70 101.00 180.00 Z"/>
</g>
<g fill="None" fill-opacity="0.0" stroke="#1A1A1A" stroke-opacity="0.64" stroke-width="0.3"><path d="
M 95.00 180.00 
L 100.00 180.00
C 99.32 178.35 95.74 178.61 95.00 180.00 Z"/>
</g>
<g fill="#000000" fill-opacity="0.00" stroke="None">
<path d="
M 0.00 75.00 
C 0.34 74.84 0.93 74.35 1.00 74.00
C 8.42 36.48 36.46 8.42 74.00 1.00
C 74.35 0.93 74.84 0.34 75.00 0.00
L 0.00 0.00
L 0.00 75.00 Z"/>
</g>
<g fill="#1A1A1A" fill-opacity="0.39" stroke="None">
<path d="
M 74.00 1.00 
C 75.77 0.81 81.05 2.15 83.00 0.00
L 75.00 0.00
C 74.84 0.34 74.35 0.93 74.00 1.00 Z"/>
</g>
<g fill="#1A1A1A" fill-opacity="0.99" stroke="None">
<path d="
M 74.00 1.00 
C 36.46 8.42 8.42 36.48 1.00 74.00
C 0.81 75.77 2.15 81.05 0.00 83.00
L 0.00 95.00
C 1.39 95.74 1.65 99.32 0.00 100.00
L 0.00 101.00
C 1.89 101.56 0.96 104.61 1.00 105.00
C 5.33 141.62 38.37 174.67 75.00 179.00
C 75.86 178.07 81.89 178.83 83.00 180.00
L 95.00 180.00
C 95.74 178.61 99.32 178.35 100.00 180.00
L 101.00 180.00
C 101.79 177.70 105.36 179.09 106.00 179.00
C 142.13 171.85 174.51 142.97 179.00 105.00
C 178.06 104.38 178.79 101.60 180.00 101.00
L 180.00 100.00
C 178.61 99.26 178.35 95.68 180.00 95.00
L 180.00 83.00
C 178.97 81.65 177.98 75.95 179.00 75.00
C 174.66 38.39 141.64 5.33 105.00 1.00
C 104.38 1.94 101.60 1.21 101.00 0.00
L 100.00 0.00
C 99.26 1.39 95.68 1.65 95.00 0.00
L 83.00 0.00
C 81.05 2.15 75.77 0.81 74.00 1.00
M 116.00 106.00 
C 106.52 105.93 95.87 111.51 86.99 112.99 C 78.12 114.48 67.62 118.83 65.08 128.08 C 62.55 137.33 51.52 144.37 45.25 135.75 C 38.97 127.14 48.87 118.12 51.92 109.92 C 54.98 101.73 60.67 93.35 64.31 85.31 C 67.94 77.26 72.20 68.89 76.25 61.25 C 80.31 53.61 86.02 46.30 93.25 41.25 C 100.48 36.20 111.61 30.93 119.75 38.25 C 127.88 45.58 126.95 55.47 129.00 66.00 C 131.05 76.53 129.45 89.57 131.00 101.00 C 132.55 112.43 132.71 119.01 137.00 131.00 C 141.28 142.99 124.47 150.92 121.22 137.78 C 117.97 124.63 121.78 117.67 116.00 106.00 Z"/>
</g>
<g fill="#1A1A1A" fill-opacity="0.64" stroke="None">
<path d="
M 100.00 0.00 
L 95.00 0.00
C 95.68 1.65 99.26 1.39 100.00 0.00 Z"/>
</g>
<g fill="#1A1A1A" fill-opacity="0.26" stroke="None">
<path d="
M 105.00 1.00 
C 104.94 0.99 105.00 0.00 105.00 0.00
L 101.00 0.00
C 101.60 1.21 104.38 1.94 105.00 1.00 Z"/>
</g>
<g fill="#000000" fill-opacity="0.00" stroke="None">
<path d="
M 105.00 1.00 
C 141.64 5.33 174.66 38.39 179.00 75.00
C 179.01 75.06 180.00 75.00 180.00 75.00
L 180.00 0.00
L 105.00 0.00
C 105.00 0.00 104.94 0.99 105.00 1.00 Z"/>
</g>
<g fill="#FA4343" fill-opacity="1.00" stroke="None">
<path d="
M 116.00 106.00 
C 121.78 117.67 117.97 124.63 121.22 137.78 C 124.47 150.92 141.28 142.99 137.00 131.00 C 132.71 119.01 132.55 112.43 131.00 101.00 C 129.45 89.57 131.05 76.53 129.00 66.00 C 126.95 55.47 127.88 45.58 119.75 38.25 C 111.61 30.93 100.48 36.20 93.25 41.25 C 86.02 46.30 80.31 53.61 76.25 61.25 C 72.20 68.89 67.94 77.26 64.31 85.31 C 60.67 93.35 54.98 101.73 51.92 109.92 C 48.87 118.12 38.97 127.14 45.25 135.75 C 51.52 144.37 62.55 137.33 65.08 128.08 C 67.62 118.83 78.12 114.48 86.99 112.99 C 95.87 111.51 106.52 105.93 116.00 106.00
M 114.00 82.00 
C 114.36 85.68 117.02 91.71 113.00 94.00
C 108.50 96.56 101.04 94.07 96.00 96.00 C 90.96 97.93 84.44 98.14 79.00 99.00
C 87.15 82.87 92.48 58.61 112.00 53.00
C 112.16 62.78 114.74 71.98 114.00 82.00 Z"/>
</g>
<g fill="#1D1A1A" fill-opacity="1.00" stroke="None">
<path d="
M 113.00 94.00 
C 115.30 92.11 114.00 84.70 114.00 82.00
C 114.74 71.98 112.16 62.78 112.00 53.00
C 92.48 58.61 87.15 82.87 79.00 99.00
C 84.44 98.14 90.96 97.93 96.00 96.00 C 101.04 94.07 108.50 96.56 113.00 94.00 Z"/>
</g>
<g fill="#1A1A1A" fill-opacity="0.39" stroke="None">
<path d="
M 0.00 75.00 
L 0.00 83.00
C 2.15 81.05 0.81 75.77 1.00 74.00
C 0.93 74.35 0.34 74.84 0.00 75.00 Z"/>
</g>
<g fill="#1A1A1A" fill-opacity="0.36" stroke="None">
<path d="
M 180.00 83.00 
L 180.00 75.00
C 180.00 75.00 179.01 75.06 179.00 75.00
C 177.98 75.95 178.97 81.65 180.00 83.00 Z"/>
</g>
<g fill="#943030" fill-opacity="1.00" stroke="None">
<path d="
M 113.00 94.00 
C 117.02 91.71 114.36 85.68 114.00 82.00
C 114.00 84.70 115.30 92.11 113.00 94.00 Z"/>
</g>
<g fill="#1A1A1A" fill-opacity="0.64" stroke="None">
<path d="
M 0.00 100.00 
C 1.65 99.32 1.39 95.74 0.00 95.00
L 0.00 100.00 Z"/>
</g>
<g fill="#1A1A1A" fill-opacity="0.64" stroke="None">
<path d="
M 180.00 100.00 
L 180.00 95.00
C 178.35 95.68 178.61 99.26 180.00 100.00 Z"/>
</g>
<g fill="#1A1A1A" fill-opacity="0.26" stroke="None">
<path d="
M 0.00 105.00 
C 0.50 105.00 1.00 105.00 1.00 105.00
C 0.96 104.61 1.89 101.56 0.00 101.00
L 0.00 105.00 Z"/>
</g>
<g fill="#1A1A1A" fill-opacity="0.26" stroke="None">
<path d="
M 179.00 105.00 
C 179.01 104.94 180.00 105.00 180.00 105.00
L 180.00 101.00
C 178.79 101.60 178.06 104.38 179.00 105.00 Z"/>
</g>
<g fill="#000000" fill-opacity="0.00" stroke="None">
<path d="
M 0.00 180.00 
L 75.00 180.00
C 75.00 179.50 75.00 179.00 75.00 179.00
C 38.37 174.67 5.33 141.62 1.00 105.00
C 1.00 105.00 0.50 105.00 0.00 105.00
L 0.00 180.00 Z"/>
</g>
<g fill="#000000" fill-opacity="0.00" stroke="None">
<path d="
M 106.00 179.00 
C 105.65 179.07 105.17 179.67 105.00 180.00
L 180.00 180.00
L 180.00 105.00
C 180.00 105.00 179.01 104.94 179.00 105.00
C 174.51 142.97 142.13 171.85 106.00 179.00 Z"/>
</g>
<g fill="#1A1A1A" fill-opacity="0.36" stroke="None">
<path d="
M 75.00 179.00 
C 75.00 179.00 75.00 179.50 75.00 180.00
L 83.00 180.00
C 81.89 178.83 75.86 178.07 75.00 179.00 Z"/>
</g>
<g fill="#1A1A1A" fill-opacity="0.33" stroke="None">
<path d="
M 101.00 180.00 
L 105.00 180.00
C 105.17 179.67 105.65 179.07 106.00 179.00
C 105.36 179.09 101.79 177.70 101.00 180.00 Z"/>
</g>
<g fill="#1A1A1A" fill-opacity="0.64" stroke="None">
<path d="
M 95.00 180.00 
L 100.00 180.00
C 99.32 178.35 95.74 178.61 95.00 180.00 Z"/>
</g>
</svg>